<svg width="140" height="39" viewBox="0 0 140 39" fill="none" xmlns="http://www.w3.org/2000/svg">
<path d="M77.5625 7.91641C76.0233 8.05304 74.8187 2.65611 74.8187 2.65611L74.0156 2.92937C74.0156 2.92937 75.8894 7.98473 74.6848 8.7362C73.4803 9.48767 70.1342 5.59368 70.1342 5.59368L69.5319 6.1402C69.5319 6.1402 73.8149 10.1708 76.0233 15.841H76.0902C77.964 14.3381 80.2393 14.6113 80.2393 14.6113H80.3063C78.7671 9.00946 80.6409 2.92937 80.6409 2.92937L79.8378 2.79274C79.8378 2.65611 79.0348 7.77978 77.5625 7.91641ZM74.2833 2.04127C74.8187 1.90464 75.1533 1.2898 74.9525 0.743273C74.7518 0.196749 74.2164 -0.144829 73.681 0.0601177C73.1456 0.196749 72.811 0.811589 73.0118 1.35811C73.1456 1.83632 73.681 2.1779 74.2833 2.04127ZM80.1055 0.265064C79.5701 0.401696 79.3024 0.94822 79.4363 1.49475C79.5701 2.04127 80.1724 2.31453 80.6409 2.1779C81.1762 2.04127 81.4439 1.49475 81.3101 0.94822C81.1762 0.401696 80.6409 0.0601177 80.1055 0.265064ZM69.6657 4.29568C69.5319 3.74916 68.9296 3.4759 68.4611 3.61253C67.9258 3.74916 67.6581 4.29568 67.7919 4.84221C67.9258 5.38873 68.4611 5.662 68.9965 5.52536C69.5319 5.32042 69.7996 4.77389 69.6657 4.29568Z" fill="#A98C58"/>
<path d="M135.918 18.9837H135.182V18.6421H136.989V18.9837H136.252V20.8965H135.851L135.918 18.9837ZM137.39 18.6421H137.792L138.461 19.7352L139.13 18.6421H139.532V20.8965H139.197V19.257L138.528 20.35L137.859 19.3253V20.8965H137.457V18.6421H137.39ZM39.6845 38.2487C35.3346 38.2487 32.7916 34.4913 32.7916 28.6162C32.7916 28.2746 32.7916 27.933 32.7916 27.5915H49.522C49.3212 21.7163 45.3059 18.2322 39.6176 18.2322C33.9293 18.2322 29.3117 22.3995 29.3117 28.6162C29.3117 34.2864 32.9924 39.0002 39.6845 39.0002C44.1683 38.9318 47.9159 36.3358 49.3212 32.1686L48.1166 31.7587C47.1797 35.7893 43.9675 38.2487 39.6845 38.2487ZM39.6845 18.9154C43.9006 18.9154 46.0421 21.8529 46.109 26.7717H32.8585C33.3939 21.8529 35.7361 18.9154 39.6845 18.9154ZM80.6405 37.7022V18.6421H73.8815V19.5302H77.3614V37.7022H73.8815V38.5903H84.3212V37.7022H80.6405ZM27.1702 19.7352C27.1702 13.9283 22.2849 11.0591 16.195 11.0591H0.40153V11.8789H5.21989V37.6338H0V38.5219H14.9904V37.6338H8.83365V11.8789H16.262C20.2103 11.8789 23.4895 13.5868 23.4895 19.7352C23.4895 24.5856 21.0134 28.0013 16.9312 28.0013C13.8528 28.0013 11.6444 26.3618 11.5774 26.3618L10.9082 27.5915C11.0421 27.6598 13.3174 28.7528 16.4627 28.7528C22.218 28.8211 27.1702 25.6786 27.1702 19.7352ZM66.7208 17.959C64.044 17.959 60.6979 19.9401 59.2925 24.039H59.1587V18.6421H52.6673V19.5302H56.1472V37.7022H52.6673V38.5903H63.7094V37.7022H59.3595V29.0944C59.4264 21.9896 63.4417 18.8471 66.5201 18.7104C67.8585 18.6421 68.9962 19.1203 69.6654 20.1451V20.2134C68.0593 19.9401 67.0555 21.2381 67.0555 22.4678C67.0555 23.9024 68.0593 24.7905 69.3308 24.7905C70.4015 24.7905 71.74 23.9024 71.74 22.1262C71.6061 19.5985 69.3308 17.959 66.7208 17.959ZM110.421 37.7022V25.2687C110.421 20.2134 107.543 18.1639 103.728 18.1639C99.044 18.1639 95.6979 21.5114 94.2256 24.8588H94.1587V18.6421H87.6673V19.5302H91.1472V37.7022H87.6673V38.5903H97.9732V37.7022H94.2925C94.2925 37.7022 94.2925 29.8459 94.2925 29.0261C94.2925 24.9271 97.7725 19.3936 102.457 19.1886C105.937 19.052 107.208 21.5114 107.208 24.7905V37.6338H103.595V38.5219H113.968V37.6338L110.421 37.7022ZM138.996 33.5349C138.996 33.5349 136.922 36.7457 135.315 36.8824C133.977 36.9507 133.91 35.8576 133.91 32.7834L133.977 24.5856C133.977 19.5302 130.43 17.8223 126.549 17.8223C121.53 17.8223 118.384 20.2134 118.25 22.4678C118.184 23.6975 119.12 24.7222 120.392 24.7905C121.396 24.8588 122.935 24.244 122.935 22.3995C122.935 21.4431 122.333 20.4866 121.262 20.2134V20.1451C121.262 20.1451 123.002 18.6421 126.013 18.6421C129.56 18.6421 130.832 21.0332 130.832 24.1757V26.7034C119.254 25.6103 116.845 30.734 116.845 33.2616C116.845 34.8329 117.247 38.7952 123.337 38.5903C126.08 38.522 129.226 36.6774 130.765 32.5102H130.899C130.899 32.5102 130.832 34.0131 130.832 34.5596C130.765 36.8824 131.902 38.2487 133.91 38.2487C135.717 38.2487 137.39 37.6338 140 34.2181L138.996 33.5349ZM123.604 37.5655C121.195 37.5655 120.258 35.4477 120.191 33.3983C119.99 28.2063 124.407 26.635 130.698 27.5915C130.564 33.33 127.419 37.5655 123.604 37.5655Z" fill="#2C2C2C"/>
</svg>
